<?xml version="1.0" standalone="no"?>
<!DOCTYPE svg PUBLIC "-//W3C//DTD SVG 20010904//EN"
 "http://www.w3.org/TR/2001/REC-SVG-20010904/DTD/svg10.dtd">
<svg version="1.0" xmlns="http://www.w3.org/2000/svg"
 width="1920.000000pt" height="1920.000000pt" viewBox="0 0 1920.000000 1920.000000"
 preserveAspectRatio="xMidYMid meet">
<metadata>
Created by potrace 1.11, written by Peter Selinger 2001-2013
</metadata>
<g transform="translate(0.000000,1920.000000) scale(0.100000,-0.100000)"
fill="#000000" stroke="none">
<path d="M11550 17561 c-875 -302 -1666 -711 -2420 -1251 -285 -204 -444 -333
-800 -649 -96 -85 -196 -174 -222 -197 l-47 -41 -143 32 c-345 78 -552 106
-773 107 -459 0 -800 -167 -1062 -522 -45 -61 -108 -169 -101 -175 2 -2 57 30
123 71 158 98 291 166 395 200 77 25 99 28 230 29 l145 0 77 -37 c159 -76 279
-174 319 -262 26 -58 24 -67 -23 -113 -47 -44 -85 -67 -135 -77 -24 -6 -47
-26 -90 -79 -85 -105 -265 -289 -366 -374 -231 -193 -464 -312 -722 -369 -132
-29 -216 -68 -283 -132 -75 -71 -97 -120 -96 -214 l1 -77 -186 -82 c-440 -193
-783 -314 -981 -344 -62 -10 -74 -18 -164 -104 -170 -165 -242 -291 -307 -539
-57 -222 -49 -242 205 -483 185 -175 204 -184 386 -184 113 0 143 4 186 21 92
38 177 106 384 309 113 110 232 218 265 240 69 45 361 184 450 213 115 39 209
53 372 59 185 6 273 -1 658 -57 149 -21 342 -48 430 -59 544 -70 882 -35 1088
112 82 59 260 245 320 335 101 151 180 352 208 529 6 43 13 80 15 82 6 7 110
-65 194 -135 145 -120 290 -298 394 -482 61 -107 139 -279 162 -357 33 -115
44 -97 51 88 6 179 -11 334 -73 635 -25 123 -44 231 -42 239 4 22 150 -78 303
-207 165 -140 201 -167 190 -150 -5 8 -30 47 -55 85 -26 39 -100 158 -165 265
-65 107 -139 224 -163 260 -73 107 -75 131 -15 151 71 23 281 -20 422 -86 232
-110 455 -340 550 -569 113 -271 22 -577 -257 -868 -383 -399 -1169 -752
-1972 -887 -375 -63 -651 -84 -1100 -84 -560 0 -1051 48 -1583 153 -110 22
-204 39 -209 38 -4 -2 34 -39 85 -84 319 -279 568 -422 866 -501 76 -20 98
-29 91 -38 -18 -22 -243 -132 -335 -165 -219 -77 -508 -134 -854 -170 -219
-22 -175 -4 -431 -174 -916 -607 -1473 -1139 -1850 -1767 -129 -214 -218 -429
-311 -754 -88 -303 -114 -499 -106 -797 13 -483 144 -943 503 -1763 l17 -40
14 95 c8 52 36 237 63 410 27 173 54 354 59 401 10 91 28 145 53 167 13 11 24
0 73 -75 31 -49 90 -155 130 -238 140 -287 228 -597 282 -991 26 -189 25 -791
0 -989 -62 -477 -194 -931 -373 -1287 -19 -37 -31 -68 -26 -68 25 0 250 187
383 320 169 168 279 299 395 470 93 139 128 208 274 549 120 280 407 920 419
933 3 4 67 -32 141 -78 209 -132 526 -321 730 -434 379 -212 920 -462 1209
-560 114 -38 310 -84 338 -78 8 2 -32 30 -89 62 -257 149 -414 261 -511 365
-100 109 -69 129 93 60 52 -23 229 -97 394 -165 632 -263 863 -367 1211 -542
677 -341 1125 -657 1545 -1088 255 -262 443 -514 633 -849 l79 -140 -6 180
c-19 657 -256 1196 -784 1788 -290 325 -681 652 -1135 952 -98 64 -177 119
-175 120 2 2 95 27 208 55 424 106 710 199 878 284 l47 24 57 -109 c306 -582
832 -930 1598 -1058 722 -121 1541 -80 2103 105 59 20 107 37 107 38 0 2 -260
3 -577 2 -425 -1 -604 2 -678 12 -412 54 -703 169 -970 383 -101 80 -102 82
-86 108 8 13 31 10 153 -14 181 -37 410 -41 546 -12 168 37 323 87 369 118 80
55 132 160 168 336 9 43 3 41 -154 -60 -68 -44 -154 -91 -190 -103 -189 -67
-431 9 -595 187 -171 184 -165 371 19 602 131 165 417 299 765 360 110 19 162
21 425 21 326 0 416 -8 695 -64 382 -76 681 -208 915 -404 319 -266 499 -636
582 -1196 l9 -55 96 161 c53 88 122 212 153 275 63 126 66 130 72 111 3 -7 43
-65 89 -130 168 -233 270 -504 325 -865 30 -192 37 -572 15 -767 -45 -387
-143 -673 -339 -988 -54 -86 -70 -119 -54 -111 41 22 404 394 491 504 264 330
467 717 552 1048 50 194 65 309 70 547 13 514 -88 979 -306 1405 -89 175 -157
281 -299 473 -142 190 -178 231 -291 327 -125 105 -628 491 -825 631 -1003
716 -2134 1280 -3296 1643 -455 142 -1087 307 -1106 288 -2 -3 51 -35 119 -73
652 -358 1465 -891 1853 -1215 102 -86 408 -379 401 -386 -4 -4 -261 26 -916
106 -543 67 -966 114 -982 109 -6 -2 29 -23 78 -47 117 -57 592 -280 624 -294
21 -9 10 -13 -85 -28 -365 -62 -595 -114 -827 -190 l-157 -51 -128 129 c-206
208 -395 348 -626 461 -238 118 -533 207 -782 236 l-50 6 91 -44 c231 -110
393 -254 484 -427 61 -117 74 -184 74 -389 1 -274 -22 -329 -207 -491 -309
-271 -687 -429 -1157 -483 -158 -19 -506 -21 -697 -5 -177 14 -379 44 -570 84
-271 57 -287 63 -457 177 -85 58 -103 74 -93 85 4 3 73 12 154 19 568 53 1047
171 1451 356 l73 33 -378 1 c-472 0 -751 26 -1081 100 -450 101 -867 292
-1037 476 -141 152 -253 376 -301 600 -25 118 -25 318 0 422 l20 80 20 -29
c222 -305 350 -460 535 -646 206 -205 342 -303 515 -370 125 -49 339 -88 321
-59 -3 6 -48 43 -99 84 -296 236 -443 456 -478 718 -16 121 -2 207 57 340 158
357 396 604 775 806 207 111 401 178 706 246 446 98 1128 225 1141 212 3 -2
-25 -34 -61 -69 -117 -116 -281 -211 -501 -291 -55 -20 -109 -40 -120 -45 -38
-16 302 -24 510 -12 390 22 710 72 1070 166 175 45 277 82 490 177 320 142
1487 689 1578 740 336 186 607 388 852 633 182 182 288 316 449 568 30 48 59
87 63 87 5 0 34 -46 65 -102 224 -408 359 -811 419 -1258 26 -190 36 -551 20
-730 -19 -220 -68 -471 -117 -594 -8 -21 -13 -41 -10 -43 6 -6 122 86 223 177
257 234 499 552 642 843 79 161 119 269 160 436 148 592 87 1183 -186 1811
-137 316 -401 775 -626 1090 -102 143 -447 602 -495 658 -82 98 -28 93 268
-24 517 -205 1144 -574 1635 -963 210 -166 701 -591 772 -668 17 -19 34 -30
37 -25 7 11 -92 239 -177 408 -417 831 -1039 1516 -1877 2069 -87 58 -161 109
-165 114 -7 12 5 14 496 100 545 96 839 145 1219 200 359 52 354 49 85 76
-609 61 -1465 117 -2262 146 -183 7 -331 14 -329 16 2 3 150 44 1116 313 986
274 1553 415 2215 549 l330 68 -220 6 c-661 20 -1600 -5 -2350 -63 -786 -62
-1449 -152 -2225 -305 -181 -36 -339 -65 -351 -65 -19 0 -21 4 -15 31 9 48 41
84 114 129 37 23 82 56 100 73 32 31 42 57 21 57 -15 0 -787 -144 -959 -179
-355 -72 -599 -133 -828 -208 -120 -39 -145 -44 -153 -32 -39 62 48 212 169
293 118 78 216 108 572 175 118 22 235 46 260 54 l45 13 -100 31 c-197 62
-340 93 -427 93 l-40 0 27 33 c88 106 324 352 470 491 265 251 504 458 1108
958 43 36 59 59 40 57 -5 0 -109 -35 -233 -78z m-3541 -3218 c0 -5 -106 -102
-236 -218 -129 -115 -310 -288 -403 -382 l-167 -173 -325 0 c-179 0 -327 3
-330 6 -9 9 166 170 265 243 341 252 729 435 1082 510 104 22 115 24 114 14z"/>
</g>
</svg>
